<svg width="500" height="500" viewBox="0 0 500 500" fill="none" xmlns="http://www.w3.org/2000/svg">
<path d="M145.833 0C122.813 0 104.167 18.6667 104.167 41.6667V430.792C104.146 476.896 177.146 500 250.104 500C322.979 500 395.833 476.958 395.833 430.792V41.6667C395.833 18.6667 377.188 0 354.167 0H145.833ZM250 458.333C238.5 458.333 229.167 449 229.167 437.5C229.167 426 238.5 416.667 250 416.667C261.5 416.667 270.833 426 270.833 437.5C270.833 449 261.5 458.333 250 458.333ZM354.167 375H145.833V83.3333H354.167V375Z" fill="white"/>
</svg>
