<svg width="500" height="500" viewBox="0 0 500 500" fill="none" xmlns="http://www.w3.org/2000/svg">
<g clip-path="url(#clip0_2_14)">
<path d="M187.437 291.354C187.646 314.354 169.104 333.187 146.062 333.333C123.042 333.521 104.292 315 104.167 292C103.958 268.979 122.479 250.229 145.458 250C168.5 249.854 187.312 268.396 187.437 291.354ZM167.062 208.313C144.062 208.479 125.229 189.979 125.083 166.917C124.896 143.938 143.354 125.167 166.417 125.021C189.375 124.813 208.25 143.292 208.333 166.313C208.583 189.375 190 208.104 167.062 208.313ZM333.333 124.688C333.417 147.646 314.979 166.521 291.979 166.667C268.937 166.875 250.146 148.354 250 125.354C249.771 102.313 268.292 83.5625 291.354 83.375C314.292 83.25 333.125 101.729 333.333 124.688V124.688ZM83.3333 454.833C178.896 462.75 144.667 361.25 233.083 360.313L271.375 392.271C280.917 507.625 139.812 533.354 83.3333 454.833ZM376.354 306.604C406.083 259.958 498.146 103.521 498.146 103.521C505.5 90.5417 489.208 77 477.833 86.5833C477.833 86.5833 340.917 205.625 300.521 243.354C268.604 273.188 268.458 286.813 258.125 336L293.125 365.167C339.521 346.104 352.875 343.5 376.354 306.604V306.604ZM113.396 406.729C69.9792 368.813 42.1458 313.417 41.6667 251.583C40.75 136.792 133.458 42.625 248.333 41.6875C328.292 41.25 383.312 81.375 383.667 113.5L418.312 83.1667C397.271 36.8542 331.187 -1.10417 247.979 1.03784e-06C110 1.14583 -1.08333 113.875 -1.32128e-06 251.917C0.479165 312.583 22.5625 367.958 58.8125 410.979C78.7708 421.229 103.042 417.833 113.396 406.729V406.729ZM380 367.021C402.062 408.063 351.854 437.229 306.146 450.187C299.812 469.187 289.417 486.042 277.521 498.333C387 486.021 466.292 408.667 408.062 333.979C398.5 348.25 389.375 358.917 380 367.021V367.021Z" fill="white"/>
</g>
<defs>
<clipPath id="clip0_2_14">
<rect width="500" height="500" fill="white"/>
</clipPath>
</defs>
</svg>
