<svg width="500" height="500" viewBox="0 0 500 500" fill="none" xmlns="http://www.w3.org/2000/svg">
<path d="M375 20.8333H126.75L0 166.667L250 479.167L500 168.396L375 20.8333ZM304.438 187.5L250 350.812L195.563 187.5H304.438V187.5ZM208.854 145.833L249.875 95.5833L290.292 145.833H208.854ZM325.771 123.479L276.729 62.5H346.104L325.771 123.479V123.479ZM173.979 122.708L153.896 62.5H223.104L173.979 122.708ZM137.771 145.833H73.3125L119.896 92.2292L137.771 145.833ZM151.646 187.5L209.979 362.437L70.0208 187.5H151.646V187.5ZM348.354 187.5H431.167L289.771 363.271L348.354 187.5V187.5ZM362.229 145.833L380.312 91.5833L426.271 145.833H362.229Z" fill="white"/>
</svg>
